<svg width="19" height="20" viewBox="0 0 19 20" fill="none" xmlns="http://www.w3.org/2000/svg">
<path d="M5.26988 2.32627C6.27129 1.66965 7.66458 1.09083 8.47862 0.928089C9.26019 0.783853 10.2335 0.745412 10.6186 0.848595C11.0294 0.958657 11.3616 1.15649 11.3978 1.32942C11.434 1.50235 10.9287 2.15588 10.3139 2.80728C9.32678 3.82138 9.09487 4.27612 8.68001 5.82442C8.34902 7.05968 8.25544 8.0593 8.39926 8.82328C8.50636 9.45048 8.87239 10.4463 9.23094 11.0593C9.59629 11.6468 10.1655 12.3978 10.5407 12.7432C10.8971 13.0563 11.9398 13.5806 12.8436 13.9044C13.9784 14.29 14.8785 14.4224 15.7559 14.3311C16.459 14.2746 17.239 14.2388 17.4904 14.2245C17.7864 14.2494 18.0092 14.4451 18.0182 14.7196C18.0528 15.0009 17.722 15.6196 17.3224 16.0838C16.8904 16.5666 15.8739 17.3823 15.0039 17.8566C14.1596 18.3376 12.7217 18.8773 11.8239 19.0448C10.4027 19.3169 9.81073 19.2671 7.96232 18.7718C6.08824 18.2697 5.57632 18.0237 4.34117 16.9854C3.35441 16.1497 2.63271 15.249 2.01829 14.0506C1.5103 13.0712 1.05978 11.6718 0.981416 10.8347C0.897783 9.91457 1.02413 8.72422 1.32337 7.60742C1.62262 6.49061 2.10838 5.39657 2.64768 4.61613C3.16658 3.91183 4.21033 2.99451 5.26988 2.32627Z" fill="#262639"/>
</svg>
