<svg width="40" height="40" viewBox="0 0 40 40" fill="none" xmlns="http://www.w3.org/2000/svg">
<g clip-path="url(#clip0_129_438)">
<rect width="40" height="40" rx="20" fill="#EBEBEB"/>
<g clip-path="url(#clip1_129_438)">
<path d="M6.80273 23.2532C6.86159 23.2606 6.92766 23.2679 6.98629 23.2679C7.46323 23.2679 7.61725 23.0424 7.65378 21.886L7.66308 20.3081H10.9388V24.0021H9.8235V21.0591H8.77261L8.75795 21.8791C8.72142 23.8352 8.13258 24.0605 7.245 24.0605C7.10565 24.0605 6.94976 24.0459 6.80296 24.0169V23.2532H6.80273Z" fill="black"/>
<path d="M15.3102 22.9151C15.0208 23.9622 14.0734 24.1402 13.4011 24.1402C12.9164 24.1402 11.4268 24.0385 11.4268 22.1479C11.4268 20.8753 12.2873 20.1699 13.4878 20.1699C15.2886 20.1699 15.3537 21.7698 15.3826 22.2205L15.3898 22.4477H12.5693C12.5693 22.8039 12.7429 23.3896 13.4516 23.3896C13.7943 23.3896 14.1025 23.2423 14.1965 22.9151H15.3102ZM14.2379 21.7882C14.2163 20.9954 13.7407 20.9212 13.4732 20.9212C12.8225 20.9212 12.6 21.41 12.5784 21.7882H14.2379Z" fill="black"/>
<path d="M16.9933 24.0021H15.8779V20.3081H16.9933V21.6972H18.3173V20.3081H19.4325V24.0021H18.3173V22.4477H16.9933V24.0021Z" fill="black"/>
<path d="M22.7169 20.3081H23.898V24.0021H22.793V21.6024L21.3254 24.0021H20.1367V20.3081H21.2416V22.7076L22.7169 20.3081Z" fill="black"/>
<path d="M26.8218 20.3081C27.1666 20.3081 28.047 20.3081 28.047 21.2026C28.047 21.6969 27.6949 22.0096 27.2911 22.068V22.0896C27.9075 22.2278 28.1789 22.4749 28.1789 23.057C28.1789 23.8133 27.6213 24.0021 26.8142 24.0021H24.5986V20.3081H26.8218ZM25.7142 21.7553H26.2937C26.477 21.7553 26.9029 21.7408 26.9029 21.4135C26.9029 21.1083 26.6313 21.0499 26.3158 21.0499H25.7142V21.7553ZM25.7142 23.2603H26.411C26.9687 23.2603 27.0348 23.0422 27.0348 22.8822C27.0348 22.6278 26.9247 22.4459 26.3966 22.4459H25.7142V23.2603Z" fill="black"/>
<path d="M32.4 22.9151C32.1109 23.9622 31.1635 24.1402 30.4909 24.1402C30.0063 24.1402 28.5166 24.0385 28.5166 22.1479C28.5166 20.8753 29.3772 20.1699 30.5777 20.1699C32.3784 20.1699 32.4433 21.7698 32.4723 22.2205L32.4796 22.4477H29.6591C29.6591 22.8039 29.8328 23.3896 30.5416 23.3896C30.884 23.3896 31.1924 23.2423 31.2864 22.9151H32.4ZM31.3277 21.7882C31.3059 20.9954 30.8306 20.9212 30.563 20.9212C29.9123 20.9212 29.6899 21.41 29.6683 21.7882H31.3277Z" fill="black"/>
<path d="M35.4071 23.2606V20.3083H36.522V23.2606H37.1312L37.0652 24.9621H36.1187V24.0021H32.9678V20.3081H34.0832V23.2603H35.4071V23.2606Z" fill="black"/>
<path d="M32.1264 17.252H28.8506V18.0028H32.1264V17.252Z" fill="black"/>
<path d="M4.51843 19.5573H3.40332V15.8633H4.51843V17.2521H5.8427V15.8633H6.9578V19.5573H5.8427V18.0031H4.51843V19.5573Z" fill="black"/>
<path d="M10.242 15.8638H11.4232V19.5578H10.3183V17.1581L8.8505 19.5578H7.66211V15.8638H8.76699V18.2635L10.242 15.8638Z" fill="black"/>
<path d="M14.5101 15.8638H15.7959L14.1892 17.649L15.7959 19.5578H14.4991L13.2651 17.9434H13.243V19.5578H12.1279V15.8638H13.243V17.3471H13.2651L14.5101 15.8638Z" fill="black"/>
<path d="M19.762 18.8086C19.8208 18.8158 19.8867 18.8231 19.9456 18.8231C20.4224 18.8231 20.5766 18.5976 20.6133 17.4417L20.6223 15.8638H23.8981V19.5578H22.7828V16.6143H21.7318L21.7173 17.4341C21.6807 19.3902 21.0919 19.6157 20.2041 19.6157C20.0647 19.6157 19.9086 19.6011 19.7617 19.5721V18.8086H19.762Z" fill="black"/>
<path d="M24.5146 17.0558C24.5748 15.7761 25.9188 15.7251 26.3392 15.7251C28.0581 15.7251 28.1188 16.6777 28.1188 17.1068V18.7938C28.1188 19.2017 28.1036 19.4408 28.3214 19.4918V19.5572H27.1204L27.0228 19.1936H27.0001C26.7001 19.5644 26.1561 19.6954 25.6833 19.6954C24.4674 19.6954 24.3623 18.939 24.3623 18.6266C24.3623 17.7831 25.0829 17.5869 25.7734 17.4704C26.6139 17.3542 26.9736 17.4123 26.996 17.0561V16.9544C26.9736 16.4669 26.4592 16.4669 26.3315 16.4669C26.1215 16.4669 25.6131 16.5105 25.6131 17.0561H24.5146V17.0558ZM27.0034 17.8066C26.6657 17.9593 26.6493 17.9228 26.2139 18.0031C25.974 18.0393 25.5256 18.1103 25.5256 18.5247C25.5256 18.8738 25.9137 18.9536 26.1314 18.9536C26.4091 18.9536 27.0034 18.7811 27.0034 18.0393V17.8066Z" fill="black"/>
<path d="M19.7344 17.7029C19.7344 16.2506 18.6993 15.7265 17.6606 15.7251C16.622 15.7267 15.5869 16.2506 15.5869 17.7029C15.5869 17.7054 15.5869 17.7148 15.5869 17.7174C15.5869 19.1696 16.622 19.6935 17.6606 19.6949C18.6993 19.6933 19.7344 19.1694 19.7344 17.7174C19.7344 17.7151 19.7344 17.7054 19.7344 17.7029ZM18.5411 17.7174C18.5411 18.8881 17.9144 18.9526 17.6606 18.9533C17.4067 18.9526 16.78 18.8881 16.78 17.7174C16.78 17.7148 16.78 17.7052 16.78 17.7029C16.78 16.5319 17.407 16.4674 17.6606 16.4667C17.9144 16.4674 18.5411 16.5319 18.5411 17.7029C18.5411 17.7052 18.5411 17.7151 18.5411 17.7174Z" fill="black"/>
</g>
<circle cx="20" cy="20" r="20" fill="#EBEBEB" style="mix-blend-mode:darken"/>
</g>
<defs>
<clipPath id="clip0_129_438">
<rect width="40" height="40" rx="20" fill="white"/>
</clipPath>
<clipPath id="clip1_129_438">
<rect width="33.8329" height="9.24008" fill="white" transform="translate(3.33594 15.7251)"/>
</clipPath>
</defs>
</svg>
