<svg width="40" height="40" viewBox="0 0 40 40" fill="none" xmlns="http://www.w3.org/2000/svg">
<rect width="40" height="40" rx="20" fill="#007BFB"/>
<g clip-path="url(#clip0_129_429)">
<path d="M13.3359 18.2251H14.8189L16.0145 21.4068L17.2009 18.2251H18.6319V22.4674H17.6808V19.2243L16.442 22.467H15.4647L14.2256 19.242V22.4674H13.3359V18.2251Z" fill="#EBEBEB"/>
<path d="M24.8441 18.2251H28.1162V22.4674H27.1029V19.1192H25.7691C25.7602 19.7151 25.7429 20.513 25.7256 20.9599C25.6906 22.073 25.3661 22.4674 24.4166 22.4674H23.9629V21.5736H24.2159C24.6434 21.5736 24.783 21.3805 24.8094 20.7757C24.8356 20.1272 24.8441 18.8388 24.8441 18.2251Z" fill="#EBEBEB"/>
<path d="M33.292 18.2251H37.1397V19.1192H35.7175V22.4684H34.7141V19.1192H33.292V18.2251Z" fill="#EBEBEB"/>
<path d="M10.717 18.1382H10.3545C9.48409 18.1382 8.82483 18.6698 8.6735 19.4611L9.59783 19.6102C9.72433 19.2332 10.0149 18.9761 10.3823 18.9591C10.4519 18.9541 10.5218 18.9541 10.5915 18.9591C11.138 18.9788 11.3847 19.2421 11.3847 19.8919C10.3493 19.8919 9.64131 19.8426 9.12096 20.1874C8.69605 20.4691 8.51367 20.7814 8.51367 21.2749C8.51367 21.9894 9.06703 22.5555 9.95999 22.5555H10.0829C10.7137 22.5555 11.2229 22.3089 11.4302 22.0111V22.4681H12.362V19.9109C12.3627 18.9246 11.8368 18.1382 10.717 18.1382ZM10.1479 21.7277C9.75178 21.7162 9.52233 21.4857 9.52233 21.1945C9.52233 20.9531 9.63052 20.8333 9.77368 20.7512C9.9237 20.6632 10.1185 20.633 10.4215 20.6221C10.7127 20.6116 10.9494 20.5988 11.402 20.5988C11.402 21.3212 10.9487 21.6867 10.3855 21.7254C10.3064 21.7305 10.2271 21.7313 10.1479 21.7277Z" fill="#EBEBEB"/>
<path d="M33.0576 20.6333V20.236C33.0576 18.8674 32.2015 18.1592 31.0965 18.1592H30.8804C29.6907 18.1592 28.9317 18.9738 28.8928 20.124C28.8873 20.2921 28.8873 20.3624 28.8928 20.5926C28.9206 21.7369 29.7191 22.5072 30.7856 22.5351C30.9817 22.5407 30.9562 22.5403 31.1403 22.5351C32.0692 22.5091 32.7722 21.9703 32.9794 21.2667L32.0813 21.1087C31.8616 21.55 31.4429 21.7191 31.1076 21.7359C31.0319 21.7408 30.9561 21.7408 30.8804 21.7359C30.3555 21.7142 29.8855 21.3008 29.8855 20.7006V20.6349L33.0576 20.6333ZM30.8628 18.9587C30.946 18.9531 31.0296 18.9531 31.1128 18.9587C31.5537 18.981 32.0182 19.269 32.063 19.841H29.8904C29.9407 19.3304 30.3493 18.9866 30.8628 18.9584V18.9587Z" fill="#EBEBEB"/>
<path d="M23.6872 19.972C23.6647 18.9456 22.8407 18.1592 21.7513 18.1592H21.3564C20.2671 18.1592 19.4431 18.9472 19.4202 19.9776C19.4146 20.2639 19.4146 20.4307 19.4202 20.7167C19.4431 21.749 20.2671 22.5351 21.3564 22.5351H21.7513C22.8407 22.5351 23.6647 21.749 23.6872 20.7167C23.6931 20.4307 23.6931 20.2583 23.6872 19.972ZM22.6923 20.6642C22.6805 21.2637 22.2465 21.6705 21.6624 21.7004C21.5902 21.7063 21.5176 21.7063 21.4453 21.7004C20.8554 21.6705 20.4272 21.2637 20.4154 20.6642C20.4096 20.4149 20.4096 20.2734 20.4154 20.0242C20.4272 19.4309 20.8554 19.0237 21.4453 18.9942C21.5176 18.9879 21.5902 18.9879 21.6624 18.9942C22.2465 19.0237 22.6805 19.4309 22.6923 20.0301C22.6982 20.2793 22.6982 20.4149 22.6923 20.6642Z" fill="#EBEBEB"/>
<path d="M6.94541 20.9708C6.82774 21.3649 6.51298 21.6341 6.09004 21.6932C5.97682 21.7087 5.86203 21.7087 5.74881 21.6932C5.22258 21.6193 4.85225 21.2227 4.84114 20.6655C4.83526 20.4163 4.83526 20.2747 4.84114 20.0255C4.85225 19.4631 5.24121 19.052 5.77724 18.9945C5.86413 18.9853 5.95172 18.9847 6.03872 18.9929C6.4888 19.0418 6.82774 19.3137 6.95031 19.7267L7.93086 19.5363C7.71971 18.7318 6.99313 18.1592 6.06389 18.1592H5.78247C4.69308 18.1592 3.86876 18.9456 3.84523 19.9776C3.84065 20.2639 3.84065 20.4307 3.84523 20.7167C3.86778 21.749 4.6921 22.5351 5.78149 22.5351H6.06291C7.01078 22.5351 7.74357 21.9408 7.9374 21.1074L6.94541 20.9708Z" fill="#EBEBEB"/>
</g>
<defs>
<clipPath id="clip0_129_429">
<rect width="33.3564" height="4.47737" fill="white" transform="translate(3.8125 18.1079)"/>
</clipPath>
</defs>
</svg>
