<svg width="20" height="20" viewBox="0 0 20 20" fill="none" xmlns="http://www.w3.org/2000/svg">
<path d="M9.2996 2.20692C9.27491 1.30073 9.37365 0.49251 9.52175 0.32107V0.296578C9.66986 0.149629 9.86732 0.00268026 9.96606 0.00268026C10.0401 -0.0218112 10.2623 0.125138 10.4351 0.296578C10.6325 0.492511 10.7066 1.17827 10.6819 2.20692C10.6078 3.72539 10.5832 3.79886 9.99074 3.79886C9.39833 3.79886 9.37365 3.72539 9.2996 2.20692Z" fill="#FFDD00"/>
<path d="M0.166615 10.4606C-0.0555384 10.1667 -0.0555384 9.97073 0.166615 9.70132C0.364085 9.40742 0.833076 9.33395 2.06726 9.38293C3.62234 9.4564 3.69639 9.4809 3.69639 10.0687C3.69639 10.6565 3.62234 10.681 2.09195 10.7545C0.85776 10.8279 0.413453 10.7545 0.166615 10.4606Z" fill="#FFDD00"/>
<path d="M16.2604 10.3871C16.1864 10.1422 16.1617 9.79928 16.2604 9.65234C16.3345 9.4564 16.9516 9.33395 17.9389 9.33395C19.0497 9.30945 19.5927 9.40742 19.8149 9.70132C20.0617 9.99522 20.0617 10.1422 19.8149 10.4361C19.5927 10.7055 19.0497 10.8279 17.9636 10.8034C16.7047 10.8034 16.3838 10.73 16.2604 10.3871Z" fill="#FFDD00"/>
<path d="M9.20086 18.0039C9.17618 17.1957 9.27491 16.4365 9.37365 16.3385C9.49707 16.2406 9.81796 16.1916 10.1142 16.2406C10.5338 16.314 10.6078 16.51 10.6819 17.906C10.7559 19.1306 10.6819 19.5714 10.3857 19.8163C10.0648 20.0612 9.91669 20.0612 9.62049 19.8163C9.34897 19.5959 9.22555 19.0326 9.20086 18.0039Z" fill="#FFDD00"/>
<path d="M2.80778 3.89683C2.65967 3.57844 2.70904 3.35802 2.98056 3.08861C3.2274 2.8437 3.49892 2.79471 3.77044 2.94166C3.99259 3.06412 4.56032 3.52946 5.00463 3.9948C5.52299 4.48463 5.79451 4.99895 5.74514 5.29285C5.69577 5.56225 5.44894 5.80717 5.17741 5.85615C4.88121 5.90514 4.36285 5.61124 3.86918 5.12141C3.40019 4.68056 2.93119 4.11725 2.80778 3.89683Z" fill="#FFDD00"/>
<path d="M14.2363 5.29285C14.187 4.97446 14.5326 4.46014 15.2731 3.77437C15.8902 3.18658 16.5319 2.77022 16.7047 2.8437C16.8775 2.89268 17.0997 3.1131 17.2231 3.33353C17.3465 3.57844 17.075 4.04378 16.3591 4.82751C15.6515 5.56225 15.1332 5.90514 14.8041 5.85615C14.5326 5.80717 14.2857 5.56225 14.2363 5.29285Z" fill="#FFDD00"/>
<path d="M6.58439 6.49293C6.88059 6.19903 7.49769 5.78268 7.89263 5.58675C8.28757 5.36632 9.22555 5.19488 9.91669 5.17039C10.7313 5.17039 11.5705 5.34183 12.1382 5.63573C12.6566 5.88064 13.323 6.37047 13.5946 6.68886C13.8908 6.98276 14.3104 7.61954 14.5326 8.06039C14.7547 8.47674 14.9275 9.40742 14.9275 10.0687C14.9275 10.7545 14.7547 11.6606 14.5326 12.1015C14.3104 12.5178 13.8908 13.1546 13.5946 13.4485C13.323 13.7669 12.6566 14.2567 12.1629 14.5017C11.5952 14.7711 10.7066 14.967 9.99074 14.967C9.27491 14.967 8.3863 14.7711 7.81857 14.5017C7.3249 14.2567 6.65844 13.7669 6.38692 13.4485C6.09071 13.1546 5.67109 12.5178 5.44894 12.1015C5.22678 11.6606 5.054 10.7545 5.054 10.0687C5.054 9.35844 5.25147 8.47674 5.52299 7.93793C5.76982 7.42361 6.2635 6.76234 6.58439 6.49293Z" fill="#FFDD00"/>
<path d="M2.70904 16.7549C2.63499 16.5834 3.05461 15.9467 3.62234 15.3344C4.31348 14.5751 4.80716 14.2322 5.15273 14.2812C5.44894 14.3302 5.69577 14.5751 5.74514 14.8445C5.79451 15.1711 5.44894 15.6854 4.70842 16.3875C3.91854 17.0978 3.44955 17.3672 3.20272 17.2447C2.98056 17.1222 2.75841 16.9018 2.70904 16.7549Z" fill="#FFDD00"/>
<path d="M14.1376 14.9425C14.1129 14.7221 14.187 14.4772 14.3104 14.4037C14.4338 14.3057 14.6807 14.2322 14.9028 14.2322C15.125 14.2078 15.7667 14.7221 16.3591 15.3344C16.9269 15.9467 17.3465 16.5834 17.2724 16.7549C17.2231 16.9018 17.0009 17.1222 16.7788 17.2447C16.5319 17.3672 16.0629 17.0978 15.2977 16.3875C14.6807 15.7997 14.1623 15.1629 14.1376 14.9425Z" fill="#FFDD00"/>
</svg>
